<svg xmlns="http://www.w3.org/2000/svg" viewBox="0 0 24 24" fill="white">
  <rect width="24" height="24" fill="#3b82f6" rx="12" />
  <path d="M12 2C6.48 2 2 6.48 2 12s4.48 10 10 10 10-4.48 10-10S17.52 2 12 2zm0 18c-4.41 0-8-3.59-8-8s3.59-8 8-8 8 3.59 8 8-3.59 8-8 8zm0-14c-2.67 0-5.2 1.53-6.32 4h2.68c.84-1.19 2.21-2 3.64-2 1.11 0 2.12.41 2.91 1.09l1.41-1.41C14.88 6.64 13.51 6 12 6zm6.32 4H13.68C12.84 8.81 11.47 8 10 8c-1.11 0-2.12.41-2.91 1.09L5.68 7.68C6.88 6.64 8.25 6 9.76 6c2.67 0 5.2 1.53 6.32 4z" fill="white"/>
</svg> 